<?xml version="1.0" standalone="no"?><!DOCTYPE svg PUBLIC "-//W3C//DTD SVG 1.1//EN" "http://www.w3.org/Graphics/SVG/1.1/DTD/svg11.dtd"><svg t="1507639480733" class="icon" style="" viewBox="0 0 1024 1024" version="1.1" xmlns="http://www.w3.org/2000/svg" p-id="2340" xmlns:xlink="http://www.w3.org/1999/xlink" width="200" height="200"><defs><style type="text/css"></style></defs><path d="M511.717751 936.785006c-30.76516 0-61.812569-13.54796-92.577729-44.030871L79.312018 550.385888C38.385888 499.863286 0 451.880926 0 359.020948c0-149.874311 122.496141-271.805954 272.93495-271.805954 56.732084 0 110.923925 17.2172 156.930541 49.393606 15.523705 10.725469 19.192944 31.894157 8.185226 47.417861-10.725469 15.241455-32.176406 18.910695-47.417861 8.185226C356.198456 167.938258 315.554576 155.237045 272.93495 155.237045c-112.899669 0-204.63065 91.448732-204.63065 203.783903 0 65.199559 21.733186 95.68247 63.223815 147.334069l336.723263 338.416758c16.93495 16.93495 30.76516 23.708931 44.030871 23.99118 13.54796 0.282249 26.531422-6.491731 44.31312-23.99118l337.852261-339.828004c27.660419-29.918412 61.812569-80.441014 61.812568-145.922823 0-112.61742-92.01323-203.783903-204.63065-203.783903-51.0871 0-100.480706 18.910695-138.019846 53.345094l-142.818081 142.535832c-13.265711 13.265711-34.716648 13.265711-48.264609 0-13.265711-13.265711-13.265711-34.716648 0-47.982359l143.947078-143.664829c51.651599-46.853363 117.133407-72.255788 185.437707-72.255789 150.721058 0 272.93495 121.931643 272.934951 271.805954 0 87.497244-43.748622 153.261301-80.723264 192.776185L604.577729 892.754135c-31.047409 30.76516-61.812569 44.030871-92.859978 44.030871z" p-id="2341" fill="#ff8c83"></path></svg>